<?xml version="1.0" encoding="UTF-8"?>
<!-- Created with Inkscape (http://www.inkscape.org/) -->
<svg width="220pt" height="100pt" version="1.1" viewBox="0 0 220 100" xmlns="http://www.w3.org/2000/svg">
 <defs>
  <pattern id="diagA" width="5" height="5" patternUnits="userSpaceOnUse" patternTransform="rotate(45 0 0)">
   <path d="m1 0v5" stroke-width=".5" fill="none" stroke="#0000ff"/>
  </pattern>
  <pattern id="diagB" width="5" height="5" patternUnits="userSpaceOnUse" patternTransform="rotate(-45 0 0)">
   <path d="m1 0v5" stroke-width=".5" fill="none" stroke="#ff0000"/>
  </pattern>
 </defs>
 <g transform="translate(0 2.2956)" stroke-width="1">
  <path d="m72.683 67.549-34.968 11.005-21.272-29.856 21.821-29.457 34.758 11.65z" stroke="#0000ff" fill="url(#diagA)"/>
  <path transform="translate(-12.233 .002883)" d="m101.12 49.942-10.247 9.4301-13.833 1.6059-12.135-6.8317-5.802-12.66 2.7473-13.652 10.247-9.4301 13.833-1.6059 12.135 6.8317 5.802 12.66z" stroke="#ff0000" fill="url(#diagB)"/>
 </g>
 <path d="m180.48 62.354-7.9424.92285-12.136-6.832-5.8022-12.659 2.748-13.652 3.8144-3.5112-15.17-5.0845-21.822 29.457 21.272 29.856 34.969-11.005z" stroke="#0000ff" stroke-width="1" fill="url(#diagA)"/>
 <path d="m181.43 19.097-13.834 1.6055-6.4321 5.9194 19.588 6.5654-.26953 29.167 5.8901-.68408 10.247-9.4292 2.748-13.652-5.8022-12.661z" stroke="#ff0000" stroke-width="1" fill="url(#diagB)"/>
 <path d="m113.39 46.705 1.4312 2.6367h-18.946v1.3169h18.946l-1.4312 2.6367 6.2607-3.2959-6.2607-3.2944z" fill="#000000"/>
</svg>
